[Header]
FileType HTR
DataType HTRS
FileVersion 1
NumSegments 64
NumFrames 3
DataFrameRate 24
EulerRotationOrder ZYX
CalibrationUnits mm
RotationUnits Degrees
GlobalAxisofGravity Y
BoneLengthAxis Y
ScaleFactor 1.0
[SegmentNames&Hierarchy]
Hips	GLOBAL
Spine	Hips
Spine1	Spine
Spine2	Spine1
Neck	Spine2
Head	Neck
LeftEye	Head
RightEye	Head
LeftShoulder	Spine2
LeftArm	LeftShoulder
LeftForeArm	LeftArm
LeftHand	LeftForeArm
LeftHandThumb1	LeftHand
LeftHandThumb2	LeftHandThumb1
LeftHandThumb3	LeftHandThumb2
LeftHandThumb4	LeftHandThumb3
LeftHandIndex1	LeftHand
LeftHandIndex2	LeftHandIndex1
LeftHandIndex3	LeftHandIndex2
LeftHandIndex4	LeftHandIndex3
LeftHandMiddle1	LeftHand
LeftHandMiddle2	LeftHandMiddle1
LeftHandMiddle3	LeftHandMiddle2
LeftHandMiddle4	LeftHandMiddle3
LeftHandRing1	LeftHand
LeftHandRing2	LeftHandRing1
LeftHandRing3	LeftHandRing2
LeftHandRing4	LeftHandRing3
LeftHandPinky1	LeftHand
LeftHandPinky2	LeftHandPinky1
LeftHandPinky3	LeftHandPinky2
LeftHandPinky4	LeftHandPinky3
RightShoulder	Spine2
RightArm	RightShoulder
RightForeArm	RightArm
RightHand	RightForeArm
RightHandPinky1	RightHand
RightHandPinky2	RightHandPinky1
RightHandPinky3	RightHandPinky2
RightHandPinky4	RightHandPinky3
RightHandRing1	RightHand
RightHandRing2	RightHandRing1
RightHandRing3	RightHandRing2
RightHandRing4	RightHandRing3
RightHandMiddle1	RightHand
RightHandMiddle2	RightHandMiddle1
RightHandMiddle3	RightHandMiddle2
RightHandMiddle4	RightHandMiddle3
RightHandIndex1	RightHand
RightHandIndex2	RightHandIndex1
RightHandIndex3	RightHandIndex2
RightHandIndex4	RightHandIndex3
RightHandThumb1	RightHand
RightHandThumb2	RightHandThumb1
RightHandThumb3	RightHandThumb2
RightHandThumb4	RightHandThumb3
LeftUpLeg	Hips
LeftLeg	LeftUpLeg
LeftFoot	LeftLeg
LeftToeBase	LeftFoot
RightUpLeg	Hips
RightLeg	RightUpLeg
RightFoot	RightLeg
RightToeBase	RightFoot
[BasePosition]
Hips	0	0	0	0	0	0	1
Spine	0	0	0	0	0	0	1
Spine1	0	0	0	0	0	0	1
Spine2	0	0	0	0	0	0	1
Neck	0	0	0	0	0	0	1
Head	0	0	0	0	0	0	1
LeftEye	0	0	0	0	0	0	1
RightEye	0	0	0	0	0	0	1
LeftShoulder	0	0	0	0	0	0	1
LeftArm	0	0	0	0	0	0	1
LeftForeArm	0	0	0	0	0	0	1
LeftHand	0	0	0	0	0	0	1
LeftHandThumb1	0	0	0	0	0	0	1
LeftHandThumb2	0	0	0	0	0	0	1
LeftHandThumb3	0	0	0	0	0	0	1
LeftHandThumb4	0	0	0	0	0	0	1
LeftHandIndex1	0	0	0	0	0	0	1
LeftHandIndex2	0	0	0	0	0	0	1
LeftHandIndex3	0	0	0	0	0	0	1
LeftHandIndex4	0	0	0	0	0	0	1
LeftHandMiddle1	0	0	0	0	0	0	1
LeftHandMiddle2	0	0	0	0	0	0	1
LeftHandMiddle3	0	0	0	0	0	0	1
LeftHandMiddle4	0	0	0	0	0	0	1
LeftHandRing1	0	0	0	0	0	0	1
LeftHandRing2	0	0	0	0	0	0	1
LeftHandRing3	0	0	0	0	0	0	1
LeftHandRing4	0	0	0	0	0	0	1
LeftHandPinky1	0	0	0	0	0	0	1
LeftHandPinky2	0	0	0	0	0	0	1
LeftHandPinky3	0	0	0	0	0	0	1
LeftHandPinky4	0	0	0	0	0	0	1
RightShoulder	0	0	0	0	0	0	1
RightArm	0	0	0	0	0	0	1
RightForeArm	0	0	0	0	0	0	1
RightHand	0	0	0	0	0	0	1
RightHandPinky1	0	0	0	0	0	0	1
RightHandPinky2	0	0	0	0	0	0	1
RightHandPinky3	0	0	0	0	0	0	1
RightHandPinky4	0	0	0	0	0	0	1
RightHandRing1	0	0	0	0	0	0	1
RightHandRing2	0	0	0	0	0	0	1
RightHandRing3	0	0	0	0	0	0	1
RightHandRing4	0	0	0	0	0	0	1
RightHandMiddle1	0	0	0	0	0	0	1
RightHandMiddle2	0	0	0	0	0	0	1
RightHandMiddle3	0	0	0	0	0	0	1
RightHandMiddle4	0	0	0	0	0	0	1
RightHandIndex1	0	0	0	0	0	0	1
RightHandIndex2	0	0	0	0	0	0	1
RightHandIndex3	0	0	0	0	0	0	1
RightHandIndex4	0	0	0	0	0	0	1
RightHandThumb1	0	0	0	0	0	0	1
RightHandThumb2	0	0	0	0	0	0	1
RightHandThumb3	0	0	0	0	0	0	1
RightHandThumb4	0	0	0	0	0	0	1
LeftUpLeg	0	0	0	0	0	0	1
LeftLeg	0	0	0	0	0	0	1
LeftFoot	0	0	0	0	0	0	1
LeftToeBase	0	0	0	0	0	0	1
RightUpLeg	0	0	0	0	0	0	1
RightLeg	0	0	0	0	0	0	1
RightFoot	0	0	0	0	0	0	1
RightToeBase	0	0	0	0	0	0	1
[Hips]
18	-1214.338135	957.9575195	23.36526871	-2.698812008	-60.25905609	11.56776524	1.0
19	-1290.817749	944.1283569	21.73633385	-0.9237049818	-60.61129379	8.689091682	1.0
20	-1371.668579	935.9252319	17.12783051	2.914744854	-60.74671936	3.660363913	1.0
[Spine]
18	0	101.8159943	1.315000057	5.581893921	1.241181254	-3.03340292	1.0
19	0	101.8159943	1.315000057	5.776740074	1.477308273	-1.37320888	1.0
20	0	101.8159943	1.315000057	5.555953026	2.009139299	0.8884840608	1.0
[Spine1]
18	0	100.8349991	-10.00800037	3.824799061	3.10185194	-1.123056293	1.0
19	0	100.8349991	-10.00800037	4.048008442	3.062504292	-0.5052989721	1.0
20	0	100.8349991	-10.00800037	4.030170441	3.262953043	0.1273659319	1.0
[Spine2]
18	0	91	-13.73399925	3.840478182	3.079525709	-1.118886709	1.0
19	0	91	-13.73399925	4.053818703	3.055757761	-0.4958087802	1.0
20	0	91	-13.73399925	4.023141861	3.273590326	0.1501072496	1.0
[Neck]
18	0	166.7169952	-25.16200066	3.775497675	6.189279079	1.445858836	1.0
19	0	166.7169952	-25.16200066	3.961980343	6.200655937	1.252402663	1.0
20	0	166.7169952	-25.16200066	4.138029575	6.083114624	1.289487004	1.0
[Head]
18	0	96.17900085	16.84999847	-16.14157867	34.6289978	-15.53129673	1.0
19	0	96.17900085	16.84999847	-15.75653076	34.8021698	-16.28136635	1.0
20	0	96.17900085	16.84999847	-13.87001801	34.90275955	-16.01376915	1.0
[LeftEye]
18	30.6760006	64.09500122	92.83599854	0	0	0	1.0
19	30.6760006	64.09500122	92.83599854	0	0	0	1.0
20	30.6760006	64.09500122	92.83599854	0	0	0	1.0
[RightEye]
18	-30.6760006	64.09500122	92.83499908	0	0	0	1.0
19	-30.6760006	64.09500122	92.83499908	0	0	0	1.0
20	-30.6760006	64.09500122	92.83499908	0	0	0	1.0
[LeftShoulder]
18	45.70400238	109.4599991	-26.28000069	0.03802916035	-4.53678894	-9.57852459	1.0
19	45.70400238	109.4599991	-26.28000069	-0.01388888154	-5.089612961	-9.552254677	1.0
20	45.70400238	109.4599991	-26.28000069	-0.03963336349	-5.245449543	-9.320966721	1.0
[LeftArm]
18	105.923996	-5.24600029	-22.32099915	15.11497879	-13.91860104	-63.3925972	1.0
19	105.923996	-5.24600029	-22.32099915	14.61359501	-14.90363693	-64.7020874	1.0
20	105.923996	-5.24600029	-22.32099915	14.6743021	-15.47165489	-66.20864868	1.0
[LeftForeArm]
18	278.414978	-0.0009999999311	0	-2.766667603e-05	-25.55865097	-0.0002027950104	1.0
19	278.414978	-0.0009999999311	0	-2.648479267e-06	-27.67434502	-0.0001979270164	1.0
20	278.414978	-0.0009999999311	0	-7.003206974e-06	-30.18795013	-0.0002000782843	1.0
[LeftHand]
18	283.2879944	0	0	5.662503719	-10.21715832	-2.06866312	1.0
19	283.2879944	0	0	6.111515045	-11.43184376	-0.5348576307	1.0
20	283.2879944	0	0	7.659347534	-13.19324684	1.147932529	1.0
[LeftHandThumb1]
18	24.6609993	-15.75	26.8239994	30.58115005	-20.32058144	11.29641056	1.0
19	24.6609993	-15.75	26.8239994	30.58115005	-20.32058144	11.29641056	1.0
20	24.6609993	-15.75	26.8239994	30.58115005	-20.32058144	11.29641056	1.0
[LeftHandThumb2]
18	32.29800034	-18.64699936	18.64699936	13.65384388	17.85062408	-3.535475969	1.0
19	32.29800034	-18.64699936	18.64699936	12.5569334	16.49098587	-3.017804623	1.0
20	32.29800034	-18.64699936	18.64699936	11.50429153	16.8628273	-2.544034481	1.0
[LeftHandThumb3]
18	26.52600098	-15.31499958	15.31499958	-15.25548363	7.767105579	10.11404324	1.0
19	26.52600098	-15.31499958	15.31499958	-15.21038914	7.873067856	10.08193302	1.0
20	26.52600098	-15.31499958	15.31499958	-15.16551208	7.978541374	10.04993343	1.0
[LeftHandThumb4]
18	19.54599953	-11.28499985	11.28499985	0	0	0	1.0
19	19.54599953	-11.28499985	11.28499985	0	0	0	1.0
20	19.54599953	-11.28499985	11.28499985	0	0	0	1.0
[LeftHandIndex1]
18	91.09299469	-5.170999527	22.60099792	-1.860860705	-5.555073738	-30.5494442	1.0
19	91.09299469	-5.170999527	22.60099792	-1.645715952	-5.773180485	-28.07155609	1.0
20	91.09299469	-5.170999527	22.60099792	-1.420202613	-5.963950634	-25.44647026	1.0
[LeftHandIndex2]
18	36.76399994	0	0	-0.71243608	2.795242071	-28.59255409	1.0
19	36.76399994	0	0	-0.715310216	2.800532579	-28.65166855	1.0
20	36.76399994	0	0	-0.7162404656	2.802220821	-28.67061996	1.0
[LeftHandIndex3]
18	28.83100128	0	0	-0.2922489047	1.824763656	-18.19645691	1.0
19	28.83100128	0	0	-0.2941457927	1.830512643	-18.25608253	1.0
20	28.83100128	0	0	-0.2947517037	1.83237958	-18.27521515	1.0
[LeftHandIndex4]
18	23.92700005	0	0	0	0	0	1.0
19	23.92700005	0	0	0	0	0	1.0
20	23.92700005	0	0	0	0	0	1.0
[LeftHandMiddle1]
18	95.33399963	0	0	-2.761325598	2.310474634	-39.35155487	1.0
19	95.33399963	0	0	-2.663463593	2.168884277	-38.3409729	1.0
20	95.33399963	0	0	-2.545646667	2.141146898	-37.1047821	1.0
[LeftHandMiddle2]
18	36.98199844	0	0	-0.5605321527	2.496773243	-25.30297661	1.0
19	36.98199844	0	0	-0.5565003157	2.488216877	-25.21023369	1.0
20	36.98199844	0	0	-0.5538130999	2.482542515	-25.1486187	1.0
[LeftHandMiddle3]
18	29.50900078	0	0	-0.3921148777	2.104240179	-21.10915756	1.0
19	29.50900078	0	0	-0.3886778057	2.095310926	-21.01537132	1.0
20	29.50900078	0	0	-0.386408627	2.089409828	-20.95311928	1.0
[LeftHandMiddle4]
18	28.3390007	0	0	0	0	0	1.0
19	28.3390007	0	0	0	0	0	1.0
20	28.3390007	0	0	0	0	0	1.0
[LeftHandRing1]
18	91.04499817	-0.4390000105	-18.65100098	-2.512087584	2.400528669	-36.74077225	1.0
19	91.04499817	-0.4390000105	-18.65100098	-2.381580114	2.74087739	-35.3344574	1.0
20	91.04499817	-0.4390000105	-18.65100098	-2.24049449	3.124862432	-33.79191971	1.0
[LeftHandRing2]
18	31.54000092	0	0	-0.8587526679	3.048069477	-31.46268845	1.0
19	31.54000092	0	0	-0.8599373102	3.049977541	-31.48475838	1.0
20	31.54000092	0	0	-0.8607507348	3.051357985	-31.50040627	1.0
[LeftHandRing3]
18	29.37700081	0	0	-0.9552292228	3.200179577	-33.23265076	1.0
19	29.37700081	0	0	-0.9565235376	3.202156782	-33.25609589	1.0
20	29.37700081	0	0	-0.9574647546	3.203551769	-33.27274323	1.0
[LeftHandRing4]
18	26.47500038	0	0	0	0	0	1.0
19	26.47500038	0	0	0	0	0	1.0
20	26.47500038	0	0	0	0	0	1.0
[LeftHandPinky1]
18	80.77799988	-4.887000084	-38.06099701	-2.022465706	1.168239594	-31.26668167	1.0
19	80.77799988	-4.887000084	-38.06099701	-1.996600628	1.861584902	-30.9405117	1.0
20	80.77799988	-4.887000084	-38.06099701	-1.950845957	2.427792788	-30.3965435	1.0
[LeftHandPinky2]
18	36	0	0	-0.4984224737	2.361049414	-23.83756256	1.0
19	36	0	0	-0.4864923656	2.333833933	-23.54599953	1.0
20	36	0	0	-0.4832927883	2.326483488	-23.46731186	1.0
[LeftHandPinky3]
18	21.14200211	0	0	-0.5653457642	2.506925583	-25.41338921	1.0
19	21.14200211	0	0	-0.5583096147	2.492055893	-25.25193596	1.0
20	21.14200211	0	0	-0.5500270128	2.474407673	-25.06058311	1.0
[LeftHandPinky4]
18	19.75699997	0	0	0	0	0	1.0
19	19.75699997	0	0	0	0	0	1.0
20	19.75699997	0	0	0	0	0	1.0
[RightShoulder]
18	-45.70000076	109.4620056	-26.28000069	2.383857727	3.839220047	9.702628136	1.0
19	-45.70000076	109.4620056	-26.28000069	2.343105316	3.229119539	9.666875839	1.0
20	-45.70000076	109.4620056	-26.28000069	2.239605427	2.934861898	9.839482307	1.0
[RightArm]
18	-105.9280014	-5.248000145	-22.32099915	24.21144867	2.587792158	59.41871643	1.0
19	-105.9280014	-5.248000145	-22.32099915	22.13170433	2.271162748	62.36682892	1.0
20	-105.9280014	-5.248000145	-22.32099915	20.40424156	2.139710188	64.71502686	1.0
[RightForeArm]
18	-278.414978	0	0	7.271258795e-08	18.99416161	3.126582669e-06	1.0
19	-278.414978	0	0	1.008361437e-06	13.79809666	4.017517313e-06	1.0
20	-278.414978	0	0	-8.732737342e-07	9.601531029	-5.778760169e-06	1.0
[RightHand]
18	-283.2879944	0	0.0009999999311	-1.311021566	2.989432335	-2.01525569	1.0
19	-283.2879944	0	0.0009999999311	-0.5523689985	1.414737105	-2.160779238	1.0
20	-283.2879944	0	0.0009999999311	-0.3928234279	-0.5010982156	-3.100360394	1.0
[RightHandPinky1]
18	-80.76699829	-4.885000229	-38.06000137	-2.25280714	-3.725454092	36.80846405	1.0
19	-80.76699829	-4.885000229	-38.06000137	-2.284471989	-3.829300642	37.19945145	1.0
20	-80.76699829	-4.885000229	-38.06000137	-2.283901215	-3.963816643	37.19138336	1.0
[RightHandPinky2]
18	-36	0	0.0009999999311	-0.3874102235	-1.855809212	23.60064507	1.0
19	-36	0	0.0009999999311	-0.3854746521	-1.851372719	23.54086876	1.0
20	-36	0	0.0009999999311	-0.3858276308	-1.85217905	23.55172729	1.0
[RightHandPinky3]
18	-21.14200211	0	0	-0.1673027575	-1.234683752	15.43239594	1.0
19	-21.14200211	0	0	-0.1659591347	-1.229823709	15.37003231	1.0
20	-21.14200211	0	0	-0.1662208736	-1.230784297	15.3823452	1.0
[RightHandPinky4]
18	-19.75699997	0	0	0	0	0	1.0
19	-19.75699997	0	0	0	0	0	1.0
20	-19.75699997	0	0	0	0	0	1.0
[RightHandRing1]
18	-91.03599548	-0.4390000105	-18.65100098	-2.051131725	-6.969878197	34.33934784	1.0
19	-91.03599548	-0.4390000105	-18.65100098	-2.094354153	-7.156312466	34.88903427	1.0
20	-91.03599548	-0.4390000105	-18.65100098	-2.075157881	-7.102841377	34.64599991	1.0
[RightHandRing2]
18	-31.54000092	0	0	-0.3708902895	-1.817512751	23.06557083	1.0
19	-31.54000092	0	0	-0.369592309	-1.814466834	23.02463913	1.0
20	-31.54000092	0	0	-0.3691791296	-1.813492656	23.0114994	1.0
[RightHandRing3]
18	-29.37700081	0	0	-0.266178757	-1.548835874	19.50177383	1.0
19	-29.37700081	0	0	-0.2650296688	-1.545590878	19.45923042	1.0
20	-29.37700081	0	0	-0.2646814287	-1.544610858	19.44641685	1.0
[RightHandRing4]
18	-26.47500038	0	0	0	0	0	1.0
19	-26.47500038	0	0	0	0	0	1.0
20	-26.47500038	0	0	0	0	0	1.0
[RightHandMiddle1]
18	-95.32500458	0	0	-1.919841886	-3.820758343	32.63273621	1.0
19	-95.32500458	0	0	-1.960168839	-4.202772617	33.14907455	1.0
20	-95.32500458	0	0	-1.923204899	-4.138890266	32.67396545	1.0
[RightHandMiddle2]
18	-36.98199844	0	0	-0.2417239994	-1.477977157	18.5757122	1.0
19	-36.98199844	0	0	-0.2421312779	-1.479176641	18.5913372	1.0
20	-36.98199844	0	0	-0.2422192395	-1.479484439	18.59528351	1.0
[RightHandMiddle3]
18	-29.50900078	0	0	-0.08713763952	-0.8970492482	11.12112331	1.0
19	-29.50900078	0	0	-0.08738022298	-0.8982845545	11.13662434	1.0
20	-29.50900078	0	0	-0.08744178712	-0.8985962272	11.14058304	1.0
[RightHandMiddle4]
18	-28.3390007	0	0.0009999999311	0	0	0	1.0
19	-28.3390007	0	0.0009999999311	0	0	0	1.0
20	-28.3390007	0	0.0009999999311	0	0	0	1.0
[RightHandIndex1]
18	-91.08300018	-5.167999744	22.60099792	-1.289891124	-0.2507656217	27.65981293	1.0
19	-91.08300018	-5.167999744	22.60099792	-1.247128248	-0.9672304392	28.41443825	1.0
20	-91.08300018	-5.167999744	22.60099792	-1.261773467	-0.6139208078	27.97078133	1.0
[RightHandIndex2]
18	-36.76399994	0	0	-0.103043288	-0.9724488258	12.09717274	1.0
19	-36.76399994	0	0	-0.1031639278	-0.9729849696	12.10399342	1.0
20	-36.76399994	0	0	-0.1028652713	-0.9716036916	12.0865984	1.0
[RightHandIndex3]
18	-28.83100128	0	0	-0.1071990654	-0.9916362166	12.33968449	1.0
19	-28.83100128	0	0	-0.1073190048	-0.9921825528	12.34653854	1.0
20	-28.83100128	0	0	-0.1070154607	-0.9907933474	12.32904053	1.0
[RightHandIndex4]
18	-23.92700005	0	0	0	0	0	1.0
19	-23.92700005	0	0	0	0	0	1.0
20	-23.92700005	0	0	0	0	0	1.0
[RightHandThumb1]
18	-24.64799881	-15.72700024	26.82600021	-0.1902875453	0.8218618631	0.3671384752	1.0
19	-24.64799881	-15.72700024	26.82600021	-0.1902875453	0.8218618631	0.3671384752	1.0
20	-24.64799881	-15.72700024	26.82600021	-0.1902875453	0.8218618631	0.3671384752	1.0
[RightHandThumb2]
18	-32.29800034	-18.64699936	18.64699936	17.71327019	-2.643317461	-17.7509861	1.0
19	-32.29800034	-18.64699936	18.64699936	17.87571716	-3.689404249	-17.93391991	1.0
20	-32.29800034	-18.64699936	18.64699936	17.9010334	-3.859834909	-18.0565834	1.0
[RightHandThumb3]
18	-26.52600098	-15.31399918	15.31399918	-1.021775603	9.950740814	-24.51788902	1.0
19	-26.52600098	-15.31399918	15.31399918	-1.65632844	11.39523315	-25.14851379	1.0
20	-26.52600098	-15.31399918	15.31399918	-1.5994699	11.25113678	-25.14418793	1.0
[RightHandThumb4]
18	-19.54599953	-11.28499985	11.28499985	0	0	0	1.0
19	-19.54599953	-11.28499985	11.28499985	0	0	0	1.0
20	-19.54599953	-11.28499985	11.28499985	0	0	0	1.0
[LeftUpLeg]
18	82.07800293	-67.51699829	-15.99599934	-0.03294547275	11.04130554	7.489891529	1.0
19	82.07800293	-67.51699829	-15.99599934	4.493465424	11.48827934	12.78041649	1.0
20	82.07800293	-67.51699829	-15.99599934	6.407456875	10.05576515	18.44133186	1.0
[LeftLeg]
18	0	-443.7049866	2.845999956	18.92770195	-9.296545029	-4.091915607	1.0
19	0	-443.7049866	2.845999956	19.74308205	-9.050018311	-4.274300575	1.0
20	0	-443.7049866	2.845999956	23.31628609	-8.88012886	-4.825791359	1.0
[LeftFoot]
18	0	-444.2789917	-29.8219986	-26.03282166	-13.52222443	-1.942550778	1.0
19	0	-444.2789917	-29.8219986	-22.76146126	-14.8531456	-2.860501766	1.0
20	0	-444.2789917	-29.8219986	-10.45047569	-13.92356682	-5.370269299	1.0
[LeftToeBase]
18	0	-87.28699493	107.1060028	-7.176911354	-1.464476827e-05	2.416165216e-06	1.0
19	0	-87.28699493	107.1060028	-10.70535374	2.414312985e-05	-1.096575375e-06	1.0
20	0	-87.28699493	107.1060028	-23.45000458	-0.7334921956	-2.125945091	1.0
[RightUpLeg]
18	-82.07800293	-67.51699829	-15.99599934	-41.06399155	-16.91014481	-13.05500984	1.0
19	-82.07800293	-67.51699829	-15.99599934	-42.56462097	-15.29463577	-9.501799583	1.0
20	-82.07800293	-67.51699829	-15.99599934	-43.72941208	-11.7091589	-6.27482748	1.0
[RightLeg]
18	0	-443.7049866	2.861999989	8.616370201	-3.251362801	-0.1885152012	1.0
19	0	-443.7049866	2.861999989	16.99863052	-0.5574523807	-0.1366763413	1.0
20	0	-443.7049866	2.861999989	25.42115402	2.439803123	0.9089953899	1.0
[RightFoot]
18	0	-444.2770081	-29.83799934	-11.876688	0.7177554369	10.42728329	1.0
19	0	-444.2770081	-29.83799934	-2.753005743	-0.3189420402	7.010820866	1.0
20	0	-444.2770081	-29.83799934	12.23779297	-1.551886082	6.219508648	1.0
[RightToeBase]
18	0	-87.28699493	107.1060028	-6.957944393	6.145116004e-06	9.5116784e-06	1.0
19	0	-87.28699493	107.1060028	-10.1933279	-2.477388443e-05	-1.266566983e-06	1.0
20	0	-87.28699493	107.1060028	-11.42460442	-4.781005373e-06	-1.415475367e-06	1.0
[EndOfFile]
